<?xml version="1.0" encoding="UTF-8"?>
<svg width="101px" height="100px" viewBox="0 0 101 100" version="1.1" xmlns="http://www.w3.org/2000/svg" xmlns:xlink="http://www.w3.org/1999/xlink">
    <!-- Generator: Sketch 52.2 (67145) - http://www.bohemiancoding.com/sketch -->
    <title>Group 5</title>
    <desc>Created with Sketch.</desc>
    <g id="Page-1" stroke="none" stroke-width="1" fill="none" fill-rule="evenodd">
        <g id="14页面提示" transform="translate(-331.000000, -2747.000000)">
            <g id="Group-5" transform="translate(331.000000, 2747.000000)">
                <path d="M90.2052618,20.2707673 C91.6992629,22.28819 91.2749458,25.1347615 89.257523,26.6287626 C87.2401002,28.1227637 84.3935287,27.6984466 82.8995276,25.6810238 C75.2266439,15.3199535 63.13643,9.09090909 50,9.09090909 C27.406533,9.09090909 9.09090909,27.406533 9.09090909,50 C9.09090909,52.5103852 7.05583977,54.5454545 4.54545455,54.5454545 C2.03506932,54.5454545 0,52.5103852 0,50 C0,22.3857625 22.3857625,0 50,0 C66.0484043,0 80.8357342,7.61863568 90.2052618,20.2707673 Z" id="Combined-Shape-Copy-3" fill="#BAE0E1" fill-rule="nonzero"></path>
                <path d="M9.89287651,79.2746873 C8.39887541,77.2572645 8.82319252,74.410693 10.8406153,72.9166919 C12.8580381,71.4226908 15.7046096,71.8470079 17.1986107,73.8644307 C24.8714944,84.225501 36.9617083,90.4545455 50.0981383,90.4545455 C72.6916053,90.4545455 91.0072292,72.1389216 91.0072292,49.5454545 C91.0072292,47.0350693 93.0422985,45 95.5526838,45 C98.063069,45 100.098138,47.0350693 100.098138,49.5454545 C100.098138,77.159692 77.7123758,99.5454545 50.0981383,99.5454545 C34.049734,99.5454545 19.2624041,91.9268189 9.89287651,79.2746873 Z" id="Oval-3" fill="#3BA1A7"></path>
            </g>
        </g>
    </g>
</svg>
