<?xml version="1.0" encoding="UTF-8"?>
<svg width="100px" height="29px" viewBox="0 0 100 29" version="1.1" xmlns="http://www.w3.org/2000/svg" xmlns:xlink="http://www.w3.org/1999/xlink">
    <!-- Generator: Sketch 43.2 (39069) - http://www.bohemiancoding.com/sketch -->
    <title>logo</title>
    <desc>Created with Sketch.</desc>
    <defs></defs>
    <g id="Page-3-Copy" stroke="none" stroke-width="1" fill="none" fill-rule="evenodd">
        <g id="用户管理" transform="translate(-20.000000, -16.000000)" fill="#FFFFFF">
            <g id="logo" transform="translate(20.000000, 16.000000)">
                <g>
                    <path d="M67.8500639,17.0366086 L58.4466455,17.0366086 L58.4466455,17.0366086 C57.3414847,17.0366086 56.9584515,16.631667 56.9584515,15.4634542 L56.9584515,15.4634542 L56.9584515,4.65724289 L67.8428999,4.65724289 C68.9480607,4.65724289 69.3310939,5.06218448 69.3310939,6.22991175 L69.3310939,7.09951655 L60.0126879,7.09951655 L60.0126879,9.6141359 L69.3310939,9.6141359 L69.3310939,12.0564096 L60.0126879,12.0564096 L60.0126879,14.5957915 L69.3310939,14.5957915 L69.3310939,15.6431045 C69.2451263,16.7268331 68.8979129,17.0366086 67.8500639,17.0366086 L67.8500639,17.0366086 Z M83.0481734,17.0366086 L73.6729333,17.0366086 L73.6729333,17.0366086 C72.5677726,17.0366086 72.1847393,16.631667 72.1847393,15.4634542 L72.1847393,15.4634542 L72.1847393,4.65724289 L74.2312449,4.65724289 C75.3364056,4.65724289 75.7194389,5.06218448 75.7194389,6.22991175 L75.7194389,14.5957915 L84.5401882,14.5957915 L84.536845,15.4634542 C84.536845,16.631667 84.1538118,17.0366086 83.0481734,17.0366086 L83.0481734,17.0366086 Z M98.2792372,17.0366086 L88.8987435,17.0366086 L88.8987435,17.0366086 C87.7935828,17.0366086 87.4100719,16.631667 87.4100719,15.4634542 L87.4100719,4.65724289 L89.4570551,4.65724289 C90.5622158,4.65724289 90.9452491,5.06218448 90.9452491,6.22991175 L90.9452491,14.5957915 L99.7717296,14.5957915 L99.7674312,15.4634542 C99.7674312,16.631667 99.384398,17.0366086 98.2792372,17.0366086 L98.2792372,17.0366086 Z M52.6218657,17.0366086 L40.1675541,17.0366086 L40.1675541,17.0366086 C39.0623933,17.0366086 38.6793601,16.631667 38.6793601,15.4634542 L38.6793601,4.65724289 L41.7144926,4.65724289 L41.7144926,14.5957915 L44.876666,14.5957915 L44.876666,4.65724289 L47.9132313,4.65724289 L47.9132313,14.5957915 L51.0744496,14.5957915 L51.0744496,4.65724289 L52.6218657,4.65724289 C53.7270264,4.65724289 54.1100597,5.06218448 54.1100597,6.22991175 L54.1100597,15.4634542 L54.1100597,15.4634542 C54.1100597,16.631667 53.7270264,17.0366086 52.6218657,17.0366086 L52.6218657,17.0366086 Z" id="Fill-1"></path>
                    <path d="M92.3247458,26.0067978 C92.6905855,25.6538092 93.0153519,25.3115024 93.3,24.9808487 C93.5841706,24.6487383 93.7876271,24.3336219 93.9127577,24.0325862 C94.0364554,23.7310649 94.0789616,23.5557844 94.0412314,23.5023749 C94.002546,23.4509075 93.9261304,23.4232316 93.8110294,23.4198328 L90.125409,23.4198328 C90.0017113,23.4198328 89.9004606,23.3800184 89.8187914,23.3008751 C89.7395102,23.2217319 89.7022576,23.1289935 89.7075112,23.0221743 C89.7108543,22.9206962 89.7547933,22.8313565 89.8374177,22.7536699 C89.9190869,22.6759833 90.0155616,22.638111 90.125409,22.638111 L91.7864933,22.638111 L91.7864933,21.25626 L89.6630946,21.25626 C89.5699631,21.25626 89.4873387,21.2237287 89.4109231,21.1581806 C89.3349851,21.0911759 89.2910461,21.0047495 89.2791061,20.8984159 C89.2671662,20.7896546 89.3010756,20.6935174 89.378924,20.6056344 C89.4567724,20.5177514 89.5513368,20.4750237 89.6630946,20.4750237 L91.7864933,20.4750237 L91.7864933,19.7792428 C91.7864933,19.6918453 91.8204028,19.6107599 91.8896544,19.5350154 C91.9589061,19.4592709 92.0506048,19.4179999 92.1637954,19.4126589 C92.2774636,19.4078035 92.3753711,19.4456758 92.4565627,19.5262756 C92.5396647,19.6073611 92.5802605,19.6918453 92.5802605,19.7792428 L92.5802605,20.4750237 L95.1096172,20.4750237 C95.2060919,20.4750237 95.292537,20.5109538 95.3670422,20.5832995 C95.4434579,20.653703 95.4854864,20.7435281 95.4926504,20.8498617 C95.4993368,20.9566809 95.463517,21.0513614 95.3856685,21.1339035 C95.3078201,21.2149889 95.216599,21.25626 95.1096172,21.25626 L92.5802605,21.25626 L92.5802605,22.638111 L94.1123935,22.638111 C94.244688,22.638111 94.4276078,22.6832664 94.6611531,22.7745482 C94.8946983,22.8638878 95.0012025,23.0770405 94.9811434,23.4144919 C94.9639499,23.6470662 94.820193,24.0272452 94.5474848,24.5574565 C94.2733438,25.0857256 93.7451209,25.7470331 92.9628161,26.5370091 C93.189675,26.710833 93.4236978,26.8759171 93.6586758,27.032747 C93.8960418,27.1890913 94.2614039,27.3735971 94.7557174,27.5852932 C95.2505084,27.7969893 95.5365894,27.9242012 95.6144378,27.9654722 C95.6903758,28.0086854 95.7462547,28.056754 95.7801641,28.1116202 C95.8121632,28.1669719 95.8326999,28.244173 95.8393862,28.3441945 C95.8460726,28.4422739 95.7887609,28.549093 95.6650631,28.659311 C95.5432757,28.7690433 95.3770718,28.7899216 95.1674065,28.7175759 C94.9572635,28.6452303 94.6831225,28.5214172 94.3445059,28.3495355 C94.0039788,28.1757116 93.7097787,28.0203384 93.45904,27.8848723 C93.2068685,27.7489207 92.8157161,27.4852717 92.28415,27.0963529 C91.8929976,27.3439791 91.5849472,27.5367391 91.3628643,27.671234 C91.1398262,27.8052435 90.9282505,27.9227445 90.7300475,28.0203384 C90.5318445,28.1203599 90.3217016,28.2135839 90.1020067,28.2975826 C89.8818343,28.3835234 89.6917504,28.4578112 89.5293673,28.5180184 C89.3669841,28.5782255 89.2280032,28.6146411 89.109559,28.6228954 C88.9930252,28.6330917 88.8860434,28.5986183 88.7895686,28.5199606 C88.6950043,28.4408173 88.6539309,28.3354548 88.6711245,28.2048441 C88.688318,28.0737479 88.7403761,27.9742119 88.8268213,27.9033229 C88.9146992,27.8314627 89.0555905,27.7659146 89.2485399,27.7057075 C89.4429221,27.6455003 89.6989144,27.5610161 90.0189048,27.4507982 C90.3369847,27.3425225 90.8738044,27.0376024 91.6269758,26.5370091 C91.5051884,26.4044563 91.3595211,26.2442276 91.1885412,26.0548664 C91.0175613,25.8640486 90.8652076,25.6795429 90.7300475,25.5023202 C90.5944098,25.323641 90.4621153,25.1342798 90.3355519,24.9327801 C90.208511,24.7312804 90.1086931,24.5642541 90.0356207,24.4302446 C89.9630259,24.2976918 89.9238629,24.1821329 89.9190869,24.0825969 C89.9138333,23.9845176 89.9477427,23.8878948 90.0189048,23.7951564 C90.0900668,23.7038746 90.1846311,23.6606614 90.3030753,23.6694011 C90.4215195,23.6781409 90.5232478,23.7364059 90.6077826,23.8466238 C90.6927949,23.9548995 90.8093287,24.1340643 90.9583392,24.3836327 C91.1073496,24.6317444 91.300299,24.9119018 91.537665,25.2216773 C91.7759862,25.5333949 91.9727564,25.745091 92.1265428,25.8553089 L92.3247458,26.0067978 Z M88.3984162,22.1375177 L88.3984162,24.1083306 C88.5646202,24.0325862 88.7117202,23.9534429 88.840194,23.8742996 C88.9691453,23.7951564 89.0842463,23.7398046 89.1874074,23.7092155 C89.2891357,23.6761987 89.3989831,23.7004758 89.5174273,23.7810757 C89.6344387,23.8621611 89.6597514,23.9879163 89.5938429,24.1563992 C89.5279345,24.3268243 89.4042367,24.4627759 89.2213168,24.5627975 L88.7255706,24.8157646 L88.3984162,24.9910451 L88.3984162,27.5629583 C88.3984162,27.9227445 88.3444477,28.2116417 88.2360331,28.4286788 C88.1261856,28.6452303 87.8668502,28.758847 87.4556387,28.7690433 C87.3371945,28.7743843 87.2115863,28.7675867 87.0812022,28.7452518 C86.950818,28.7243735 86.8510002,28.6937844 86.7817485,28.6520278 C86.7120193,28.612699 86.6513644,28.5626882 86.600739,28.5058799 C86.5482033,28.4490715 86.5209802,28.3767258 86.5157267,28.2888428 C86.5109507,28.2014453 86.5429497,28.1223021 86.6107686,28.0480142 C86.6785874,27.9742119 86.7678982,27.9343975 86.879656,27.9309987 C86.9274158,27.9309987 87.0000106,27.9465361 87.0983957,27.9742119 C87.1982136,28.0033444 87.2741516,28.015483 87.3266873,28.0120842 C87.4064461,28.0086854 87.4723546,27.9824661 87.5248903,27.9309987 C87.577426,27.8814735 87.6046491,27.7489207 87.6046491,27.5333403 L87.6046491,25.359571 C87.4556387,25.4129806 87.2965987,25.4731877 87.1256187,25.5387358 C86.9560716,25.6042839 86.803718,25.640214 86.6714235,25.645555 C86.5396065,25.6504104 86.4364455,25.6246767 86.3600299,25.5712671 C86.2840918,25.5178576 86.2430185,25.423177 86.2396753,25.2891675 C86.2363321,25.1546725 86.2688087,25.0531944 86.3347172,24.9842475 C86.4006257,24.9153006 86.5634864,24.8434404 86.8204339,24.7691526 C87.077859,24.6953503 87.3405376,24.6089239 87.6046491,24.5074457 L87.6046491,22.1375177 L86.6819306,22.1375177 C86.5854559,22.1375177 86.5037867,22.1030443 86.4345351,22.0340974 C86.3652834,21.9656361 86.3280308,21.8758109 86.3227772,21.7641363 C86.3180013,21.6539184 86.3519107,21.5572957 86.4259383,21.4766958 C86.5004435,21.3956104 86.5854559,21.3562815 86.6819306,21.3562815 L87.6046491,21.3562815 L87.6046491,19.8982004 C87.6046491,19.805462 87.6399913,19.717579 87.7130637,19.6384357 C87.7842258,19.5607491 87.8768797,19.5194781 87.9886375,19.5175359 C88.1003954,19.5160793 88.1968701,19.5539515 88.2785393,19.6316381 C88.3578205,19.7088392 88.3984162,19.7981789 88.3984162,19.8982004 L88.3984162,21.3562815 L89.192661,21.3562815 C89.2805389,21.3562815 89.3636409,21.3941537 89.4381461,21.4713548 C89.5126514,21.5490415 89.549904,21.6437221 89.549904,21.7534544 C89.5465608,21.8622157 89.5093082,21.9534975 89.4381461,22.0272998 C89.3669841,22.1011021 89.2838821,22.1375177 89.192661,22.1375177 L88.3984162,22.1375177 Z M73.7380815,21.987971 C73.7419023,22.1083853 73.6974857,22.2098634 73.6076974,22.2943476 C73.5164763,22.3783463 73.4047184,22.4074788 73.2729015,22.3802885 C73.1625765,22.362809 73.013566,22.2443369 72.8206166,22.0258432 C72.6295776,21.8054074 72.4074947,21.5660354 72.1534128,21.3096695 C71.9012413,21.0513614 71.7302614,20.8605436 71.6404731,20.7347884 C71.5511623,20.6075765 71.5053129,20.4973586 71.5053129,20.4007359 C71.5034026,20.3060553 71.5320584,20.2215711 71.5931909,20.1511675 C71.6543234,20.080764 71.7402909,20.0443484 71.8487056,20.0409496 C71.9523443,20.0409496 72.0655349,20.0875616 72.1906654,20.1822422 C72.3177064,20.2749806 72.4447473,20.3871407 72.5736987,20.5143526 L73.172606,21.1649782 C73.5436993,21.5417583 73.7313952,21.8156037 73.7380815,21.987971 L73.7380815,21.987971 Z M73.1878892,24.1753354 C73.1878892,24.2564208 73.1439502,24.3404195 73.057505,24.4302446 C72.9696271,24.5195843 72.8745852,24.5627975 72.7714241,24.5593987 C72.6749494,24.5593987 72.5904146,24.528324 72.5159094,24.4661747 C72.4414042,24.4025688 72.3009905,24.2462244 72.0941907,23.9913151 C71.8878686,23.738348 71.6777257,23.5179122 71.4628068,23.3304932 C71.2478879,23.1445308 71.1175037,23.0085792 71.0702216,22.9226383 C71.0243722,22.8362119 71.0024027,22.7556121 71.0057459,22.6779254 C71.0057459,22.5643087 71.0702216,22.4472932 71.1972625,22.3302777 C71.3238259,22.2113201 71.5239393,22.2768682 71.7947371,22.5215811 L72.3855253,23.1066586 C72.910405,23.6247313 73.1778596,23.9811188 73.1878892,24.1753354 L73.1878892,24.1753354 Z M74.085295,25.3304385 L74.085295,20.051146 C74.085295,19.9603497 74.1225476,19.8773221 74.19562,19.8035198 C74.2682148,19.7297175 74.3646895,19.6933019 74.4850441,19.6933019 C74.5982347,19.6967007 74.6932767,19.7365151 74.7677819,19.8137162 C74.8422871,19.8914028 74.8795397,19.9705461 74.8795397,20.051146 L74.8795397,25.2148797 L75.732529,25.0876678 C75.8223173,25.0774714 75.9106728,25.101263 75.9985508,25.1566147 C76.084996,25.2114809 76.1389645,25.2993639 76.1595012,25.4183216 C76.1795603,25.5387358 76.148994,25.6436128 76.0678024,25.7329524 C75.9866109,25.8242342 75.8920465,25.8757016 75.7817215,25.8897823 L74.8795397,26.0101966 L74.8795397,28.3354548 C74.8795397,28.4476149 74.8389439,28.5422955 74.7577523,28.6228954 C74.6760831,28.7039808 74.5815188,28.741853 74.474537,28.7384542 C74.3613464,28.7384542 74.2682148,28.6986398 74.19562,28.6180399 C74.1225476,28.5369545 74.085295,28.4442161 74.085295,28.3354548 L74.085295,26.1427495 L70.5978776,26.6608222 C70.4235545,26.6884981 70.2812304,26.6574234 70.1747261,26.5714826 C70.0658339,26.4835996 70.0218949,26.3753238 70.037178,26.2476264 C70.044342,26.1806217 70.081117,26.108276 70.1489359,26.0310749 C70.2167547,25.9533883 70.323259,25.9033775 70.4689262,25.879586 L74.085295,25.3304385 Z M68.3918545,22.8585469 L67.0421637,22.8585469 C66.9409131,22.8585469 66.8511247,22.8206746 66.7747091,22.7449301 C66.6987711,22.6691857 66.6648617,22.5730485 66.671548,22.4574896 C66.6748912,22.3492138 66.7140542,22.257932 66.7899922,22.1855864 C66.8664078,22.1132407 66.9509426,22.0773106 67.0421637,22.0773106 L68.4816428,22.0773106 L68.4816428,20.600779 C68.2629031,20.6124319 68.0393875,20.6299114 67.8110958,20.6469054 C67.584237,20.6658415 67.3693181,20.6760379 67.1692047,20.67798 C66.9695689,20.6799222 66.8730942,20.5575658 66.8797806,20.3128529 C66.8797806,20.2011783 66.9151228,20.1152375 66.9862848,20.0530882 C67.0574469,19.9914244 67.1711151,19.9482112 67.3249015,19.9239341 L68.0207611,19.8792643 C68.1883979,19.8690679 68.4271967,19.8413921 68.7371575,19.7947801 C69.0452079,19.7501103 69.3365424,19.7000995 69.6125938,19.6432911 C69.8867348,19.588425 70.1255336,19.5505527 70.3299454,19.5282178 C70.5348347,19.5058829 70.6384734,19.6262972 70.6384734,19.8894607 C70.6351302,19.9826846 70.6079071,20.0618279 70.5572818,20.1254338 C70.5047461,20.1890398 70.4249873,20.2409927 70.3165726,20.2769228 C70.2067252,20.314795 69.8442286,20.3885973 69.2300382,20.4988152 L69.2300382,22.0773106 L70.4402704,22.0773106 C70.5348347,22.0773106 70.6231903,22.1166395 70.7010387,22.1957827 C70.7788871,22.2754115 70.8161397,22.3715487 70.8127965,22.4871076 C70.8061101,22.59684 70.7655143,22.684723 70.6924419,22.7556121 C70.6198471,22.8240734 70.5348347,22.8585469 70.4402704,22.8585469 L69.2300382,22.8585469 L69.2300382,23.0445092 C69.6293097,23.5591832 69.9512105,23.9481019 70.1947852,24.2098088 C70.4369272,24.4715157 70.6012208,24.6608768 70.6824124,24.7744935 C70.7655143,24.8895669 70.8061101,24.9910451 70.8041997,25.0808702 C70.8027669,25.1687532 70.7449776,25.277029 70.6313094,25.4042409 C70.516686,25.5333949 70.3929882,25.5401925 70.2592609,25.4251191 C70.1255336,25.3115024 70.0070894,25.1857472 69.9034507,25.0463968 C69.8022,24.908503 69.576774,24.5987275 69.2300382,24.1136716 L69.2300382,28.2184393 C69.2300382,28.337397 69.1889648,28.4354763 69.1077732,28.5146196 C69.0265816,28.5937629 68.9353605,28.6296929 68.8336322,28.6228954 C68.7338143,28.6194966 68.6507123,28.5782255 68.5828935,28.4990823 C68.5150746,28.419939 68.4816428,28.326715 68.4816428,28.2184393 L68.4816428,24.2044678 C68.3054093,24.5040469 68.1836219,24.7055467 68.1138927,24.8104236 C68.044641,24.913844 67.9090033,25.1046618 67.7079347,25.3804493 C67.5063886,25.6557513 67.3502142,25.8499679 67.2422771,25.962128 C67.1319521,26.0757447 67.0321342,26.1427495 66.9390027,26.1670265 C66.8458712,26.1908181 66.7646796,26.1854771 66.6954279,26.1514892 C66.6256987,26.1184724 66.5750733,26.0568086 66.5411639,25.9703822 C66.5091649,25.8829848 66.5177616,25.7781078 66.5664766,25.657208 C66.6156691,25.5367937 66.715487,25.3872469 66.8611543,25.2080821 C67.0082543,25.0308595 67.2016813,24.7657538 67.4400025,24.4166495 L67.8263789,23.8675021 C68.0312683,23.567923 68.1683388,23.3421462 68.2375904,23.1911428 L68.3918545,22.8585469 Z M56.0493007,27.6848292 C56.0879861,27.776111 56.1051796,27.8795313 56.0984933,27.9946047 C56.0913293,28.1116202 56.0392712,28.1995032 55.9394533,28.2597103 C55.8410682,28.3199175 55.7445935,28.3339982 55.6514619,28.3009813 C55.5817327,28.2805886 55.5191674,28.2373754 55.4632885,28.1737695 C55.4074096,28.1101635 55.2975621,27.9586746 55.1332686,27.7212448 C54.9708854,27.4818729 54.7454594,27.178895 54.4612888,26.8123112 L54.2244004,26.5059345 C54.1546712,26.4214503 54.1054786,26.3287118 54.0768228,26.2252915 C54.0495997,26.1223567 54.0768228,26.0359303 54.1613576,25.9655268 C54.2458923,25.8951233 54.3237407,25.8572511 54.3968132,25.8499679 C54.4765719,25.8465691 54.5577635,25.8674474 54.6422983,25.915516 C54.7268331,25.962128 54.9097529,26.154888 55.1924907,26.4918538 C55.4752284,26.8312473 55.683461,27.1012083 55.8157555,27.3061068 C55.9475724,27.5129475 56.0254208,27.6382172 56.0493007,27.6848292 L56.0493007,27.6848292 Z M51.6745071,26.2976372 C51.6405976,26.2082976 51.6420304,26.102935 51.6759399,25.9825208 C51.7117597,25.8640486 51.8029808,25.8038415 51.9519912,25.8018993 C52.1010017,25.8004427 52.2280426,25.8538523 52.3331141,25.9601859 C52.4057089,26.0378725 52.5055268,26.2029566 52.6292246,26.4578659 C52.7529223,26.710833 52.822174,26.9016508 52.8374571,27.027406 C52.8527402,27.1531613 52.8288604,27.2599804 52.7682055,27.3439791 C52.707073,27.4304055 52.6072551,27.4682777 52.4682742,27.4575958 C52.2958615,27.4507982 52.1755069,27.3891344 52.107688,27.2682346 C52.0398692,27.1497625 51.9367081,26.9191303 51.7982048,26.576338 L51.6745071,26.2976372 Z M49.7851311,27.266778 L49.7851311,26.2976372 C49.7851311,26.1840205 49.8190405,26.0859411 49.884949,26.003399 C49.9508575,25.920857 50.0339594,25.8757016 50.1337773,25.8674474 C50.2355056,25.8587077 50.3286371,25.8965799 50.4112615,25.9776653 C50.4962739,26.0602074 50.5383025,26.1670265 50.5383025,26.2976372 L50.5383025,27.1046071 C50.5383025,27.3235863 50.5569288,27.4643934 50.5960918,27.5284848 C50.6333444,27.5920908 50.7159688,27.6556967 50.8430097,27.7159039 C50.9700507,27.776111 51.301981,27.8120411 51.8388006,27.8261218 C52.1688205,27.8363181 52.476871,27.8280639 52.7615191,27.8018447 C53.0442569,27.7746544 53.2305199,27.729499 53.3183979,27.6644365 C53.4062758,27.6008305 53.4674083,27.5231439 53.4994073,27.4338043 L53.5791661,27.1254854 C53.6183291,27.0414867 53.6770736,26.9807941 53.7515788,26.9429218 C53.8279945,26.9069917 53.8939029,26.8861135 53.9516922,26.8827147 C54.0309734,26.8827147 54.107389,26.9123327 54.183327,26.9691411 C54.2597427,27.0254639 54.310368,27.1167457 54.3323375,27.2391021 C54.3562174,27.3614586 54.3476206,27.500809 54.3089352,27.6556967 C54.2444595,27.8863289 54.1580144,28.0586961 54.0448237,28.1718273 C53.9330659,28.2839874 53.7687724,28.3767258 53.5538535,28.4490715 C53.338457,28.5214172 52.9458718,28.5646304 52.3737099,28.5782255 C52.0398692,28.5884219 51.7065061,28.5801677 51.3745758,28.5539485 C51.0412127,28.5301569 50.7565645,28.4854871 50.5182434,28.4233378 C50.2808774,28.361674 50.1170614,28.2650513 50.0253627,28.1305563 C49.9341415,27.9980035 49.8710987,27.8654506 49.8371892,27.729499 C49.801847,27.5954896 49.7851311,27.442544 49.7851311,27.266778 L49.7851311,27.266778 Z M51.8622029,21.836482 L51.8622029,22.3851439 L54.3968132,22.3851439 L54.4020667,22.1598527 C54.4020667,22.1132407 54.3920372,22.0671142 54.3715005,22.0205023 C54.3528742,21.9738903 54.3189647,21.9326192 54.2731154,21.8932904 C54.2258332,21.8554181 54.112165,21.836482 53.9311555,21.836482 L51.8622029,21.836482 Z M51.8622029,23.5766627 L54.0343166,23.5766627 C54.1971774,23.5766627 54.2984281,23.5523856 54.3395014,23.5057737 C54.38153,23.4591617 54.4020667,23.3819606 54.4020667,23.2736848 L54.4020667,22.965366 L51.8622029,22.965366 L51.8622029,23.5766627 Z M54.1785511,24.1908727 L51.8622029,24.1908727 L51.8622029,24.8313019 C52.6664772,24.7948863 53.448782,24.7521586 54.2091173,24.7055467 C54.1718647,24.6283456 54.1494176,24.5710517 54.1393881,24.533665 C54.1293585,24.4972494 54.1226722,24.4525795 54.119329,24.4011121 C54.1159858,24.3477026 54.1226722,24.3064316 54.1393881,24.2768135 L54.1785511,24.1908727 Z M51.1376874,22.3851439 L51.1376874,21.836482 L49.2177452,21.836482 C48.9975727,21.836482 48.8710094,21.8500772 48.8371,21.8792097 C48.8046233,21.9068855 48.7793106,21.9447578 48.7640275,21.9928264 C48.7473116,22.0413805 48.7387149,22.0996455 48.7387149,22.1651936 L48.7387149,22.3851439 L51.1376874,22.3851439 Z M51.1376874,23.5766627 L51.1376874,22.965366 L48.7387149,22.965366 L48.7387149,23.2183331 C48.7387149,23.3319498 48.742058,23.4042955 48.7487444,23.4353701 C48.7554308,23.4645026 48.7707139,23.4975194 48.797937,23.5281086 C48.82516,23.5611254 48.9636633,23.5766627 49.2177452,23.5766627 L51.1376874,23.5766627 Z M51.8622029,20.6503042 L51.8622029,21.2217865 L54.0008848,21.2217865 C54.3156216,21.2217865 54.5458236,21.2664563 54.6895805,21.3577381 C54.8352477,21.4490199 54.9436624,21.5645788 55.0162572,21.7039292 C55.0893296,21.8432796 55.1265822,22.0035083 55.1265822,22.1841297 L55.1265822,23.2887366 C55.1265822,23.4698436 55.1198959,23.6193904 55.1060455,23.7349492 C55.0926728,23.8500226 55.0687929,23.9379056 55.0353611,23.9947139 C54.9995413,24.0515223 54.9116633,24.1219258 54.7674289,24.20641 C54.9083201,24.3646965 55.012914,24.4802554 55.0874192,24.5540577 L55.7312207,25.2804278 C55.8936039,25.4610492 55.984825,25.6144803 56.0053617,25.7382934 C56.023988,25.8640486 56.0067945,25.962128 55.9494828,26.0359303 C55.8936039,26.1102182 55.8205315,26.1602289 55.7312207,26.1820783 C55.6428652,26.2063554 55.5616736,26.1995578 55.4905116,26.1602289 C55.4193495,26.1223567 55.3247852,26.0223352 55.2025202,25.8655053 C55.0826432,25.7072187 54.9422296,25.5435913 54.782712,25.3751084 C54.0343166,25.4197782 52.9578117,25.4663902 51.5527197,25.5178576 C50.1490605,25.5678683 49.3108767,25.593602 49.0400789,25.5970008 L47.8737857,25.6125382 C47.7242976,25.6159369 47.6025103,25.593602 47.5046028,25.5474756 C47.4062177,25.5008636 47.3603683,25.3974433 47.3641891,25.2391567 C47.3641891,25.1221413 47.3961881,25.0410558 47.4601862,24.9949294 C47.5246619,24.949774 47.611107,24.9240403 47.7228648,24.9191849 C47.8327123,24.913844 48.1866121,24.908503 48.781221,24.9017054 L50.5774655,24.8468392 L51.1376874,24.8313019 L51.1376874,24.1908727 L49.0859283,24.1908727 C48.555795,24.1908727 48.2458342,24.0825969 48.1527027,23.8655599 C48.0595711,23.6485228 48.0141994,23.474699 48.0141994,23.3440883 L48.0141994,22.2152044 C48.0141994,22.0205023 48.0447656,21.853476 48.1054205,21.7155822 C48.166553,21.578174 48.2596845,21.4611585 48.3829047,21.3645357 C48.5066024,21.2698551 48.7320285,21.2217865 49.055362,21.2217865 L51.1376874,21.2217865 L51.1376874,20.6503042 L47.5857943,20.6503042 C47.4840661,20.6503042 47.3961881,20.6158307 47.3216829,20.548826 C47.2471777,20.4818213 47.2065819,20.4007359 47.2013283,20.3045986 C47.1965523,20.2099181 47.2318946,20.1234917 47.3063998,20.0496894 C47.380905,19.9758871 47.4740365,19.9394715 47.5857943,19.9394715 L51.1376874,19.9394715 L51.1376874,19.6466899 C51.1376874,19.5626913 51.1730296,19.4850046 51.246102,19.4146011 C51.3186969,19.343712 51.4103956,19.3111808 51.5221534,19.3145796 C51.6200609,19.3218627 51.7012525,19.3577928 51.7657282,19.4233409 C51.8302039,19.4884034 51.8622029,19.5626913 51.8622029,19.6466899 L51.8622029,19.9394715 L55.5769567,19.9394715 C55.6562379,19.9394715 55.7293103,19.9652051 55.7933084,20.0171581 C55.8577841,20.0705677 55.9002903,20.14437 55.9189166,20.2424493 C55.9394533,20.3390721 55.913663,20.4318105 55.842501,20.5196935 C55.7718165,20.6075765 55.683461,20.6503042 55.5769567,20.6503042 L51.8622029,20.6503042 Z M48.6675528,25.9810641 C48.7778779,25.9878617 48.8671886,26.025734 48.9369178,26.0946808 C49.0061695,26.1636277 49.0419893,26.2495686 49.0434221,26.3510467 C49.0453325,26.4544671 49.0181094,26.5729392 48.9655737,26.7074342 C48.8012801,27.1099481 48.5729885,27.4988668 48.2830868,27.8741904 C47.9936627,28.249514 47.7448343,28.4456727 47.5332586,28.46121 C47.380905,28.4748052 47.2710576,28.4301354 47.2032387,28.3252584 C47.1354198,28.2218381 47.1101072,28.1184177 47.1253903,28.0169396 C47.1354198,27.9533336 47.1760156,27.8795313 47.2452673,27.7969893 L47.5232291,27.4886704 C47.7176113,27.2633792 47.8990983,26.9773953 48.0681679,26.6316897 C48.237715,26.2854986 48.3542488,26.0893399 48.4220677,26.0446701 C48.4898865,25.9980581 48.5729885,25.9776653 48.6675528,25.9810641 L48.6675528,25.9810641 Z M32.0146811,22.2234586 L30.5909628,22.2234586 C30.3722231,22.5196389 30.1826169,22.7624096 30.0202337,22.9551696 C29.8592833,23.1459874 29.7155264,23.2508644 29.5918287,23.2668872 C29.4681309,23.2838812 29.3716562,23.2668872 29.3038373,23.2149343 C29.2364961,23.1615247 29.2040195,23.0823815 29.2073626,22.9755624 C29.2073626,22.8949625 29.2517792,22.7934843 29.34109,22.6725845 L29.7680622,22.1685924 C29.8931927,22.0103059 30.006861,21.8447362 30.1047685,21.6709124 C30.2045863,21.4990307 30.308225,21.3043286 30.4180725,21.0911759 C30.5264871,20.8775376 30.6162754,20.7483836 30.6836167,20.7037137 C30.7514355,20.6571018 30.8225976,20.64205 30.8990132,20.6522463 C30.9749512,20.6638993 31.0394269,20.700315 31.0900522,20.7585799 C31.1411552,20.8173305 31.1664678,20.8911328 31.1664678,20.9775591 C31.1631246,21.0649566 31.1359016,21.1601227 31.0819331,21.2616009 L30.9482057,21.5126259 L34.8420587,21.5126259 C34.931847,21.5126259 35.0111282,21.5490415 35.0822902,21.6228438 C35.1534523,21.6971316 35.1873617,21.7864713 35.1840185,21.8913482 C35.1773321,21.987971 35.1415123,22.0685709 35.0775142,22.1307202 C35.0130386,22.1923839 34.9351902,22.2234586 34.8420587,22.2234586 L32.7597333,22.2234586 L32.6599154,23.3683654 L35.5412615,23.3683654 C35.6243635,23.3683654 35.7003015,23.4028389 35.7695531,23.4713002 C35.8392824,23.5402471 35.876535,23.6261879 35.8817885,23.7310649 C35.8865645,23.8364274 35.8545655,23.9243104 35.7848362,23.9961705 C35.7155846,24.0685162 35.634393,24.1049318 35.5412615,24.1049318 L32.574903,24.1049318 L32.471742,24.4423832 C33.8835203,25.2838266 34.6796755,25.7931596 34.8587746,25.9757232 C35.0402616,26.1563446 35.1367363,26.3146311 35.1520195,26.447184 C35.166825,26.5797368 35.1214532,26.6831571 35.0130386,26.7555028 C34.9065343,26.8278485 34.8014629,26.8535822 34.6978242,26.8331894 C34.5965735,26.8123112 34.4862485,26.7555028 34.3678043,26.6608222 C34.2512705,26.5680838 33.9651895,26.3525034 33.5081287,26.0155376 C33.0525006,25.6795429 32.8017619,25.4974648 32.7597333,25.4663902 L32.0891863,25.0531944 C31.9148632,25.3047048 31.7147498,25.5659262 31.495055,25.8363728 C31.2729721,26.108276 30.9329226,26.3699829 30.472041,26.6263488 C30.0135473,26.881258 29.6868706,27.0206085 29.495354,27.0448855 C29.2837782,27.0754746 29.1467077,27.0531397 29.0855753,26.9807941 C29.0249204,26.9089339 28.9943541,26.8380449 28.9924437,26.769098 C28.9910109,26.7006366 29.01107,26.6350885 29.0535762,26.5714826 C29.094172,26.5093333 29.1586477,26.4544671 29.2498688,26.4044563 C29.34109,26.3544455 29.5039507,26.2719035 29.7408391,26.1602289 C29.9777275,26.0461267 30.1692441,25.9412497 30.3163442,25.8451125 C30.4639218,25.7470331 30.626305,25.6159369 30.8073145,25.4508528 C30.9868911,25.2872254 31.1545279,25.0978642 31.3087919,24.8861681 C31.4625783,24.674472 31.5963056,24.4147073 31.713317,24.1049318 L29.3310604,24.1049318 C29.2398393,24.1049318 29.1586477,24.0738572 29.0908288,24.0117079 C29.02301,23.9500441 28.9843246,23.8689587 28.9723846,23.7689371 C28.9604447,23.6713433 28.9910109,23.5800615 29.062173,23.4975194 C29.1328574,23.4144919 29.2193026,23.3717642 29.3210309,23.3683654 L31.8857298,23.3683654 C31.9248928,23.0755839 31.9487726,22.8998179 31.955459,22.8430095 L32.0146811,22.2234586 Z M35.8154025,28.2252369 L28.6032017,28.2252369 C27.9379083,28.2252369 27.605978,27.9295421 27.605978,27.3371815 L27.605978,20.595438 C27.605978,20.4682261 27.6246043,20.3492685 27.6632897,20.2371084 C27.7005423,20.1268905 27.7702716,20.0205569 27.8686567,19.9205353 C27.967997,19.8190572 28.1767071,19.7690464 28.4947871,19.7690464 L35.8154025,19.7690464 C35.908534,19.7690464 35.9882928,19.8069186 36.0575444,19.8826631 C36.1267961,19.9584076 36.1607055,20.0462906 36.1573623,20.1477687 C36.150676,20.2409927 36.1153337,20.3215926 36.0489477,20.3871407 C35.9830392,20.4526888 35.9051908,20.4852201 35.8154025,20.4852201 L28.8706564,20.4852201 C28.6032017,20.4852201 28.4522809,20.5056128 28.4202819,20.548826 C28.3863724,20.590097 28.3644029,20.6313681 28.3510302,20.6745813 C28.3371799,20.7158523 28.3304935,20.8139317 28.3304935,20.9688194 L28.3304935,26.9239857 C28.3304935,27.0997517 28.352463,27.2410443 28.3949692,27.3512622 C28.4369978,27.459538 28.5778891,27.5144041 28.8166878,27.5144041 L35.8154025,27.5144041 C35.9171308,27.5144041 36.0069191,27.5522764 36.0814243,27.629963 C36.1559295,27.7071641 36.1912718,27.7950471 36.1879286,27.8931265 C36.1812422,27.9824661 36.1420792,28.0620949 36.0728276,28.1271575 C36.0035759,28.1927056 35.9171308,28.2252369 35.8154025,28.2252369 L35.8154025,28.2252369 Z" id="Fill-51"></path>
                    <path d="M34.1177459,17.0878649 L24.7143275,17.0878649 L24.7143275,17.0878649 C23.6091668,17.0878649 23.2261335,16.6829234 23.2261335,15.5147105 L23.2261335,15.5147105 L23.2261335,4.70849927 L34.1105819,4.70849927 C35.2157427,4.70849927 35.5987759,5.11344087 35.5987759,6.28116814 L35.5987759,7.15028739 L26.2803699,7.15028739 L26.2803699,9.66539228 L35.5987759,9.66539228 L35.5987759,12.1076659 L26.2803699,12.1076659 L26.2803699,14.6470479 L35.5987759,14.6470479 L35.5987759,15.6943609 C35.5128084,16.7780895 35.1655949,17.0878649 34.1177459,17.0878649 L34.1177459,17.0878649 Z" id="Fill-49"></path>
                    <path d="M11.2379001,18.6431687 L9.77646152,17.9567813 L16.2521382,14.9696564 L13.7886748,13.8430757 L7.32488352,16.7867817 L5.89681534,16.1368846 L12.3194651,13.1714692 L10.0461671,12.1317262 L10.0461671,12.1252595 L0.200542097,16.6860869 C0.338137655,16.889786 0.551616477,17.0782423 0.778352014,17.1664657 L0.778352014,17.1715467 C3.08182051,18.2343848 5.0470142,19.1410998 7.43368001,20.2422759 C7.60327454,20.3203375 7.7637265,20.3923943 7.91686441,20.4593702 C8.49010305,20.669074 9.23202195,20.7956353 10.0429672,20.7956353 C10.8936826,20.7956353 11.6689718,20.6561407 12.2531816,20.4274989 C12.4026624,20.3609849 12.5599145,20.2898519 12.7253949,20.2127141 L19.391694,17.0754709 C19.6362575,16.9604571 19.7866526,16.9022574 19.934305,16.6532918 L17.7643179,15.6606629 L11.2379001,18.6431687 Z" id="Fill-1"></path>
                    <path d="M4.57128107e-05,6.18791588 L4.57128107e-05,6.26274412 L4.57128107e-05,6.28953448 L4.57128107e-05,6.3777579 L4.57128107e-05,6.40131494 L4.57128107e-05,6.45951468 L4.57128107e-05,14.538655 L4.57128107e-05,15.939144 L0.000959969009,15.939144 C0.00050284091,15.9516154 0.00050284091,15.9645487 4.57128107e-05,15.9770201 L4.57128107e-05,16.0116628 C0.0041598657,16.2610902 0.0773003616,16.4925035 0.200724948,16.6860407 L10.0463499,12.13168 L10.0490927,9.08958872 L10.0486356,9.09005062 L10.0486356,9.00783194 L3.63375697,11.9787902 L3.63375697,10.5810726 L10.050007,7.61242385 L10.0509212,6.61979492 L10.0527497,4.70197486 L10.0527497,4.70197486 L10.0527497,4.61975618 L3.6520421,7.60133818 L3.6520421,6.22717762 L10.0541211,3.28762876 L10.0564068,0.914834524 L10.0564068,0.914834524 L10.0568639,0.17486638 C7.05490367,1.56935067 4.05294344,2.96383495 1.05098321,4.35831924 C0.0151309401,4.83915997 -0.00132567149,5.09551597 4.57128107e-05,6.18791588" id="Fill-3"></path>
                    <path d="M10.0465328,12.1315414 L10.0483613,9.69869983 L10.0492756,8.81507994 L10.0570467,0.174727809 C13.3049419,1.69207822 16.3937565,3.13506229 19.6421087,4.6524127 C20.0388959,4.77943594 20.1138649,5.19607219 20.1138649,5.58037525 L20.1138649,5.66213203 L20.1138649,7.29819143 L20.1138649,7.38041012 L20.1138649,7.49265248 C20.1129507,7.50142863 20.0960369,7.68803732 20.0233536,7.82845575 L13.7200142,4.93833048 L13.7200142,6.41919057 C15.535727,7.23814408 17.351897,8.05709759 19.1676098,8.8760511 C20.110665,9.3014635 20.1138649,9.44234382 20.1138649,10.5181152 L20.1138649,10.599872 L20.1138649,11.8211428 L20.1138649,11.9033615 C20.1060937,11.9638707 20.0827802,12.0982844 20.0270106,12.2063697 L13.7200142,9.35042518 L13.7200142,10.8211234 C15.6609801,11.7093623 17.601946,12.5976012 19.5429119,13.4858402 C20.0960369,13.7389628 20.1138649,13.9163335 20.1138649,14.5482164 L20.1138649,14.6299732 L20.1138649,16.0447812 C20.1047224,16.2678802 20.0402673,16.4757364 19.9346707,16.653569 L10.0465328,12.1315414 Z" id="Fill-6"></path>
                </g>
            </g>
        </g>
    </g>
</svg>