<?xml version="1.0" encoding="UTF-8"?>
<svg width="18px" height="18px" viewBox="0 0 18 18" version="1.1" xmlns="http://www.w3.org/2000/svg" xmlns:xlink="http://www.w3.org/1999/xlink">
    <!-- Generator: Sketch 43.2 (39069) - http://www.bohemiancoding.com/sketch -->
    <title>Shape</title>
    <desc>Created with Sketch.</desc>
    <defs></defs>
    <g id="Page-3-Copy" stroke="none" stroke-width="1" fill="none" fill-rule="evenodd">
        <g id="用户管理" transform="translate(-630.000000, -22.000000)" fill-rule="nonzero" fill="#FFFFFF">
            <g id="Group-22" transform="translate(630.000000, 13.000000)">
                <path d="M8.92852928,14.9876819 C10.2925085,14.9876819 11.4024946,16.0866202 11.4024946,17.4370235 C11.4024946,18.7874268 10.2925085,19.886365 8.92852928,19.886365 C7.56455006,19.886365 6.45456394,18.7874268 6.45456394,17.4370235 C6.45456394,16.0866202 7.56455006,14.9876819 8.92852928,14.9876819 L8.92852928,14.9876819 Z M8.92852928,13.8990875 C6.95485494,13.8990875 5.35502154,15.4829974 5.35502154,17.4370275 C5.35502154,19.3910575 6.9548509,20.9749675 8.92852928,20.9749675 C10.9022077,20.9749675 12.502037,19.3910575 12.502037,17.4370275 C12.502037,15.4829974 10.9022036,13.8990875 8.92852928,13.8990875 L8.92852928,13.8990875 Z M17.762814,19.5970316 C17.9199436,18.9336666 18,18.2506039 18,17.5573136 C18,16.8640233 17.9199436,16.1809607 17.762814,15.5175956 C17.6934563,15.2247875 17.3974779,15.0430879 17.1017301,15.1117553 C16.8059783,15.1804226 16.622452,15.4734552 16.6918097,15.7662593 C16.8296629,16.3482366 16.8999395,16.9478637 16.8999395,17.5573136 C16.8999395,18.1667634 16.8296629,18.7663905 16.6918097,19.3483678 C16.622452,19.641176 16.8059783,19.9342045 17.1017301,20.0028719 C17.3974779,20.0715393 17.6934563,19.8898397 17.762814,19.5970316 L17.762814,19.5970316 Z M17.1129591,20.0150793 C17.1477513,20.0150793 17.1768683,20.0156003 17.2034188,20.0167425 C17.5069063,20.0298075 17.7636317,19.7968218 17.776824,19.496355 C17.7900203,19.1958882 17.5546924,18.941722 17.2512049,18.928661 C17.2071915,18.9267654 17.1626114,18.9259678 17.1129632,18.9259678 C16.8091883,18.9259678 16.5629349,19.1697742 16.5629349,19.4705256 C16.5629309,19.7712729 16.8091843,20.0150793 17.1129591,20.0150793 L17.1129591,20.0150793 Z M15.3171034,23.2910302 C15.0925552,22.9495609 14.9713148,22.5517359 14.9713148,22.1354075 C14.9713148,20.9643753 15.9301543,20.0150793 17.1129591,20.0150793 C17.4167299,20.0150793 17.6629874,19.7712729 17.6629874,19.4705216 C17.6629874,19.1697742 17.4167299,18.9259638 17.1129591,18.9259638 C15.3226046,18.9259638 13.8712543,20.3628726 13.8712543,22.1354035 C13.8712543,22.7644348 14.0553108,23.3683701 14.3952016,23.8852469 C14.5609411,24.1372891 14.9016738,24.2085895 15.1562498,24.0444955 C15.4108258,23.8804096 15.482843,23.5430683 15.3171034,23.2910302 L15.3171034,23.2910302 Z M11.5947969,26.0914714 C12.9634434,25.6845048 14.2104528,24.9586603 15.2374599,23.9806013 C15.4563896,23.7721064 15.4631456,23.427375 15.2525547,23.2106283 C15.0419638,22.9938817 14.6937667,22.9871889 14.474841,23.1956837 C13.5730454,24.0544986 12.4787329,24.6914611 11.278364,25.0483919 C10.9874293,25.1349014 10.8224143,25.4385343 10.9097935,25.7265733 C10.9971727,26.0146083 11.3038581,26.1779809 11.5947969,26.0914714 L11.5947969,26.0914714 Z M7.06166026,25.8017692 C7.41220925,25.0641541 8.16207297,24.5833744 8.99999999,24.5833744 C9.83807678,24.5833744 10.588406,25.0642984 10.9388902,25.8017692 C11.0682184,26.0739018 11.3958883,26.1907092 11.6707527,26.0626683 C11.9456211,25.9346233 12.0636028,25.6102187 11.9342746,25.3380902 C11.4039883,24.2222796 10.2681519,23.4942629 8.99999997,23.4942629 C7.73193303,23.4942629 6.59660265,24.2221915 6.0662758,25.3380902 C5.93694763,25.6102187 6.05492533,25.9346273 6.32979374,26.0626683 C6.60466216,26.1907092 6.93232805,26.0739017 7.06166026,25.8017692 L7.06166026,25.8017692 Z M2.7872205,24.0038818 C3.80979506,24.9699419 5.04780995,25.6872861 6.40560794,26.0914273 C6.69651839,26.1780169 7.00324826,26.0147285 7.0907084,25.7267136 C7.17816855,25.4386986 7.0132386,25.1350217 6.72232816,25.048432 C5.53122908,24.6939058 4.44466037,24.0643134 3.54665765,23.2159425 C3.32688599,23.0083173 2.97872124,23.0163928 2.76900875,23.233977 C2.55929625,23.4515612 2.56744884,23.7962566 2.7872205,24.0038818 L2.7872205,24.0038818 Z M0.924423746,20.0150793 C2.10722857,20.0150793 3.06606805,20.9643753 3.06606805,22.1354075 C3.06606805,22.5589577 2.94063807,22.9633794 2.70892089,23.3083874 C2.5407202,23.5588264 2.60942617,23.8968411 2.86237893,24.0633716 C3.11533573,24.2298982 3.45674849,24.1618801 3.62495322,23.911441 C3.97573699,23.3891539 4.16612859,22.7752715 4.16612859,22.1354115 C4.16612859,20.3628806 2.71477423,18.9259718 0.924423746,18.9259718 C0.62064889,18.9259718 0.374391458,19.1697782 0.374391458,19.4705296 C0.374395488,19.7712729 0.62065294,20.0150793 0.924423746,20.0150793 L0.924423746,20.0150793 Z M0.803414134,20.018069 C0.840493421,20.0160532 0.880568182,20.0150793 0.924423746,20.0150793 C1.2281986,20.0150793 1.47445603,19.7712729 1.47445603,19.4705216 C1.47445603,19.1697742 1.2281986,18.9259638 0.924423746,18.9259638 C0.861380862,18.9259638 0.801414445,18.9274186 0.743059092,18.9305967 C0.439741662,18.9470963 0.207368717,19.2039115 0.224034152,19.50421 C0.240703637,19.8045045 0.500096683,20.0345686 0.803414134,20.018069 L0.803414134,20.018069 Z M0.237712195,15.5160687 C0.0803357323,16.1810568 0,16.8645804 0,17.5573136 C0,18.2500468 0.0803317018,18.9335744 0.237712195,19.5985585 C0.307013209,19.8913786 0.602951215,20.0731343 0.898715161,20.0045271 C1.19447911,19.9359158 1.37806205,19.6429193 1.30876506,19.3501032 C1.1706002,18.7662864 1.10006053,18.1661182 1.10006053,17.5573136 C1.10006053,16.948509 1.17059617,16.3483368 1.30876506,15.764524 C1.37806608,15.4717038 1.19447911,15.1787073 0.898715161,15.1101001 C0.602951215,15.0414889 0.307009159,15.2232486 0.237712195,15.5160687 L0.237712195,15.5160687 Z M0.924423746,15.0995479 C0.880564132,15.0995479 0.840489371,15.0985741 0.803414134,15.0965582 C0.500096703,15.0800586 0.240703637,15.3101228 0.224034152,15.6104172 C0.207368717,15.9107157 0.439745712,16.167527 0.743059092,16.1840305 C0.801410394,16.1872046 0.861380862,16.1886594 0.924423746,16.1886594 C1.2281986,16.1886594 1.47445603,15.944853 1.47445603,15.6441016 C1.47445603,15.3433543 1.2281986,15.0995479 0.924423746,15.0995479 L0.924423746,15.0995479 Z M2.70892087,11.8062439 C2.94067043,12.1512959 3.06606803,12.5557296 3.06606803,12.9797648 C3.06606803,14.1506607 2.10736617,15.0995479 0.924423726,15.0995479 C0.62064887,15.0995479 0.374391437,15.3433543 0.374391437,15.6441057 C0.374391437,15.944857 0.62064887,16.1886634 0.924423726,16.1886634 C2.71484706,16.1886634 4.16612857,14.7522315 4.16612857,12.9797688 C4.16612857,12.3394519 3.97578151,11.7255495 3.6249532,11.2031942 C3.45675252,10.9527551 3.11533571,10.884733 2.8623789,11.0512636 C2.6094221,11.2177942 2.54072018,11.5558048 2.70892087,11.8062439 L2.70892087,11.8062439 Z M6.40560794,9.02319993 C5.04780995,9.42734506 3.80979506,10.1446853 2.7872205,11.1107454 C2.56744884,11.3183706 2.55929625,11.66307 2.76900875,11.8806542 C2.97872124,12.0982384 3.32688599,12.1063099 3.54665765,11.8986847 C4.44466039,11.0503098 5.53122908,10.4207214 6.72232816,10.0661952 C7.01323862,9.97960553 7.17816855,9.6759286 7.0907084,9.38791362 C7.00324826,9.09990265 6.69651839,8.93661428 6.40560794,9.02319993 L6.40560794,9.02319993 Z M10.9388903,9.31285804 C10.5884344,10.0502727 9.83814155,10.5312568 9.00055052,10.5312568 C8.16213371,10.5312568 7.41223355,10.0505292 7.06166028,9.31285804 C6.93233211,9.04072545 6.60466216,8.92391801 6.32979783,9.05196295 C6.05492942,9.18000389 5.93694769,9.50441248 6.06627989,9.77654105 C6.59664722,10.8925199 7.73203023,11.6203683 9.00055457,11.6203683 C10.2682491,11.6203683 11.4040328,10.8922714 11.9342787,9.77654105 C12.0636069,9.50440845 11.9456252,9.18000387 11.6707568,9.05196295 C11.3958883,8.92391801 11.0682184,9.04072545 10.9388903,9.31285804 L10.9388903,9.31285804 Z M15.2373425,11.1339177 C14.210384,10.1564919 12.9634838,9.4307115 11.5949992,9.02321996 C11.3040969,8.93659826 10.9973508,9.09985457 10.9098583,9.38785752 C10.8223658,9.67586046 10.9872633,9.97955743 11.2781657,10.0661791 C12.478652,10.4236429 13.5730818,11.0606776 14.4749625,11.9190597 C14.6939529,12.1274904 15.042146,12.1206934 15.2526721,11.9038826 C15.4631983,11.6870719 15.4563329,11.3423484 15.2373425,11.1339177 L15.2373425,11.1339177 Z M17.1129591,15.0995479 C15.9300126,15.0995479 14.9713148,14.1506607 14.9713148,12.9797648 C14.9713148,12.5629514 15.0925268,12.1651144 15.3171034,11.8236011 C15.4828429,11.5715589 15.4108258,11.2342176 15.1562498,11.0701277 C14.9016738,10.9060378 14.5609411,10.9773382 14.3952015,11.2293803 C14.0552623,11.7463252 13.8712543,12.3502806 13.8712543,12.9797688 C13.8712543,14.7522315 15.3225358,16.1886634 17.1129591,16.1886634 C17.4167299,16.1886634 17.6629874,15.944857 17.6629874,15.6441057 C17.6629874,15.3433543 17.4167299,15.0995479 17.1129591,15.0995479 L17.1129591,15.0995479 Z M17.2034188,15.0978887 C17.1768683,15.0990309 17.1477554,15.0995519 17.1129591,15.0995519 C16.8091843,15.0995519 16.5629309,15.3433583 16.5629309,15.6441097 C16.5629309,15.944861 16.8091843,16.1886674 17.1129591,16.1886674 C17.1626114,16.1886674 17.2071915,16.1878699 17.2512009,16.1859782 C17.5546883,16.1729133 17.7900163,15.918747 17.77682,15.6182802 C17.7636277,15.3178095 17.5069063,15.0848238 17.2034188,15.0978887 L17.2034188,15.0978887 Z" id="Shape"></path>
            </g>
        </g>
    </g>
</svg>