<?xml version="1.0" encoding="UTF-8"?>
<svg width="17px" height="15px" viewBox="0 0 17 15" version="1.1" xmlns="http://www.w3.org/2000/svg" xmlns:xlink="http://www.w3.org/1999/xlink">
    <!-- Generator: Sketch 43.2 (39069) - http://www.bohemiancoding.com/sketch -->
    <title>Shape</title>
    <desc>Created with Sketch.</desc>
    <defs></defs>
    <g id="Page-3-Copy" stroke="none" stroke-width="1" fill="none" fill-rule="evenodd">
        <g id="用户管理" transform="translate(-795.000000, -24.000000)" fill-rule="nonzero" fill="#FFFFFF">
            <g id="Group-22" transform="translate(630.000000, 13.000000)">
                <path d="M181.653499,14.5779327 L178.503033,11.342334 C178.267803,11.1007831 177.94426,10.9777735 177.610974,11.0041627 C177.579516,11.0013748 177.549173,11 177.519388,11 L175.84095,11 L175.723223,11.0672524 C175.101422,11.4224564 174.308014,11.6180649 173.489209,11.6180649 C172.670404,11.6180649 171.877033,11.4224564 171.255232,11.0672524 L171.137506,11 L169.45903,11 C169.031035,11 168.64636,11.2397942 168.447497,11.6206236 L165.33336,14.8189489 C165.118396,15.0397246 165,15.3332519 165,15.6454541 C165,15.9576563 165.118396,16.2511837 165.333323,16.4719593 L167.608612,18.8087976 C167.798997,19.0042915 168.04501,19.1219545 168.309988,19.1461287 L168.309988,24.7936087 C168.309988,25.4443259 168.825404,25.9737139 169.458992,25.9737139 L177.519389,25.9737139 C178.152977,25.9737139 178.66843,25.4443641 178.66843,24.7936087 L178.66843,18.9059526 C178.936568,18.8834969 179.18578,18.7653757 179.378136,18.5678577 L181.653499,16.2309812 C182.097223,15.7751851 182.097223,15.0336524 181.653499,14.5779327 Z M180.919066,15.4766931 L178.643702,17.8135695 C178.619941,17.838011 178.592797,17.8431285 178.574241,17.8431285 C178.556095,17.8431285 178.529471,17.8382783 178.505673,17.8151735 L177.629864,16.9660217 L177.629864,24.7935705 C177.629864,24.8561255 177.580371,24.9069944 177.519426,24.9069944 L169.45903,24.9069944 C169.398158,24.9069944 169.348628,24.8561637 169.348628,24.7935705 L169.348628,17.2446168 L168.479661,18.0574118 C168.456123,18.0794092 168.430131,18.0840302 168.412469,18.0840302 C168.393914,18.0840302 168.366843,18.0789127 168.343045,18.0545094 L166.067756,15.7176712 C166.043698,15.6929242 166.03864,15.6647019 166.03864,15.645416 C166.03864,15.6261301 166.043698,15.5979078 166.067756,15.5731607 L169.21138,12.344589 L169.311816,12.2520167 L169.356846,12.137829 C169.369786,12.1050239 169.404331,12.0666813 169.459067,12.0666813 L170.872342,12.0666813 C171.63247,12.4714557 172.533936,12.6847462 173.489283,12.6847462 C174.44463,12.6847462 175.346134,12.4714557 176.106262,12.0666813 L177.518868,12.0666813 C177.524446,12.0668341 177.529949,12.0677888 177.535415,12.0685908 L177.609561,12.0795131 L177.683744,12.0684762 C177.707394,12.0650773 177.738703,12.0658029 177.768674,12.096584 L180.919103,15.3321444 C180.957849,15.3720146 180.957849,15.4368611 180.919066,15.4766931 Z" id="Shape"></path>
            </g>
        </g>
    </g>
</svg>