<?xml version="1.0" encoding="UTF-8"?>
<svg width="16px" height="16px" viewBox="0 0 16 16" version="1.1" xmlns="http://www.w3.org/2000/svg" xmlns:xlink="http://www.w3.org/1999/xlink">
    <!-- Generator: Sketch 43.2 (39069) - http://www.bohemiancoding.com/sketch -->
    <title>Shape</title>
    <desc>Created with Sketch.</desc>
    <defs></defs>
    <g id="Page-3-Copy" stroke="none" stroke-width="1" fill="none" fill-rule="evenodd">
        <g id="用户管理" transform="translate(-954.000000, -24.000000)" fill-rule="nonzero" fill="#FFFFFF">
            <g id="Group-22" transform="translate(630.000000, 13.000000)">
                <path d="M335.727616,21.4050469 C334.862618,21.4050469 334.154323,22.1133423 334.154323,22.9783402 C334.154323,23.8433381 334.862618,24.5516334 335.727616,24.5516334 C336.592614,24.5516334 337.300909,23.8433381 337.300909,22.9783402 C337.300909,22.1133423 336.592614,21.4050469 335.727616,21.4050469 L335.727616,21.4050469 Z M335.727616,23.7430485 C335.307653,23.7430485 334.962908,23.3983029 334.962908,22.9783402 C334.962908,22.5583774 335.307653,22.2136319 335.727616,22.2136319 C336.147579,22.2136319 336.492324,22.5583774 336.492324,22.9783402 C336.492324,23.404571 336.147579,23.7430485 335.727616,23.7430485 L335.727616,23.7430485 Z M339.889635,22.157219 C339.833222,21.843814 339.632643,21.6432348 339.375651,21.6432348 L339.338042,21.6432348 C338.84913,21.6432348 338.447972,21.2420763 338.447972,20.7531645 C338.447972,20.6215344 338.504385,20.4648318 338.523189,20.414687 C338.642283,20.1388906 338.548261,19.8066813 338.278733,19.6186383 L337.238228,19.041973 C337.156743,19.0043644 337.06899,18.9918282 336.974968,18.9918282 C336.786925,18.9918282 336.598882,19.0670454 336.47352,19.1986756 C336.34189,19.3303057 335.997144,19.6061021 335.758957,19.6061021 C335.520769,19.6061021 335.169755,19.3240376 335.044393,19.1861393 C334.919031,19.0545092 334.730988,18.979292 334.542945,18.979292 C334.448924,18.979292 334.367438,18.9980963 334.285953,19.0294368 L334.267149,19.0357049 L333.20784,19.6186383 L333.182767,19.6374426 C332.938311,19.8066813 332.84429,20.1451587 332.963384,20.414687 C332.969652,20.4334913 333.044869,20.6089982 333.044869,20.7531645 C333.044869,21.2420763 332.643711,21.6432348 332.154799,21.6432348 L332.110922,21.6432348 C331.860198,21.6432348 331.659619,21.843814 331.603206,22.157219 C331.596938,22.2073638 331.515453,22.6335946 331.515453,22.9846083 C331.515453,23.3356219 331.596938,23.7618528 331.603206,23.8119976 C331.659619,24.1254026 331.860198,24.3259818 332.11719,24.3259818 L332.154799,24.3259818 C332.643711,24.3259818 333.044869,24.7271402 333.044869,25.2160521 C333.044869,25.3476822 332.988456,25.5043847 332.969652,25.5545295 C332.850558,25.8303259 332.938311,26.1625353 333.20784,26.3505783 L334.22954,26.9209754 C334.311025,26.958584 334.398779,26.9773883 334.4928,26.9773883 C334.687111,26.9773883 334.875154,26.895903 334.994248,26.7642729 C335.11961,26.6263747 335.476892,26.3255059 335.721348,26.3255059 C335.965804,26.3255059 336.323086,26.6263747 336.454716,26.770541 C336.580078,26.9084392 336.768121,26.9899245 336.962432,26.9899245 C337.056453,26.9899245 337.137939,26.9711202 337.244496,26.9272435 L338.278733,26.3568464 L338.303805,26.3380421 C338.548261,26.1688033 338.642283,25.8303259 338.523189,25.5607976 C338.516921,25.5419933 338.441704,25.3664865 338.441704,25.2223202 C338.441704,24.7334083 338.842862,24.3322499 339.331774,24.3322499 L339.375651,24.3322499 C339.626375,24.3322499 339.826954,24.1316707 339.883367,23.8182656 C339.883367,23.8119975 339.97112,23.3544262 339.97112,22.9908764 C339.977388,22.6398628 339.895903,22.2073638 339.889635,22.157219 L339.889635,22.157219 Z M339.11239,23.529933 C338.272465,23.6427588 337.633119,24.3573223 337.633119,25.2160521 C337.633119,25.4166313 337.683263,25.6046743 337.720872,25.7300363 L336.974968,26.143731 C336.906019,26.0810499 336.799461,25.9807603 336.667831,25.8804707 C336.335622,25.6360148 336.015949,25.5106528 335.721348,25.5106528 C335.426747,25.5106528 335.107074,25.6297467 334.781133,25.8742026 C334.649503,25.9682241 334.542945,26.0685138 334.473996,26.1311948 L333.759433,25.7300363 C333.803309,25.6046743 333.847186,25.4103632 333.847186,25.2160521 C333.847186,24.3573223 333.20784,23.6364907 332.367914,23.529933 C332.34911,23.3920348 332.317769,23.1663832 332.317769,22.9846083 C332.317769,22.8028334 332.34911,22.5771817 332.367914,22.4392835 C333.20784,22.3264577 333.847186,21.6118942 333.847186,20.7531645 C333.847186,20.5525853 333.797041,20.3645422 333.759433,20.2391802 L334.530409,19.8192175 C334.599358,19.8818985 334.705916,19.97592 334.837546,20.0699415 C335.163487,20.3018612 335.470624,20.414687 335.765225,20.414687 C336.053557,20.414687 336.360694,20.3018612 336.686636,20.0762096 C336.818266,19.9821881 336.924823,19.8944347 336.987504,19.8317537 L337.72714,20.2391802 C337.683263,20.3645422 337.639387,20.5588534 337.639387,20.7531645 C337.639387,21.6118942 338.278733,22.3327258 339.118659,22.4392835 C339.137463,22.5834498 339.168803,22.8091014 339.168803,22.9846083 C339.162535,23.1663832 339.137463,23.3920348 339.11239,23.529933 L339.11239,23.529933 Z M325.053041,25.836594 L325.053041,24.9465237 C325.053041,21.9127631 327.391042,19.4180591 330.36839,19.1359945 L330.36839,19.1359945 L330.374658,19.1359945 C330.556433,19.1171902 330.744476,19.1109221 330.926251,19.1109221 L331.007736,19.1109221 C331.665887,19.0607773 332.662515,18.9040748 333.182767,18.4402354 L333.439759,18.2396562 C334.436387,17.4624117 335.006785,16.3028131 335.006785,15.0554611 C335.006785,12.8177492 333.176499,11 330.926251,11 C328.676003,11 326.845718,12.8177492 326.845718,15.0554611 C326.845718,16.3028131 327.416115,17.4624117 328.412743,18.2396562 L328.669735,18.4402354 L328.368866,18.5593293 C325.71746,19.6123702 324,22.1196104 324,24.9465237 L324,26.3568464 C324,26.645179 324.238188,26.8770987 324.52652,26.8770987 L332.211212,26.8770987 C331.960488,26.5574256 331.747372,26.2064119 331.578134,25.836594 L325.053041,25.836594 L325.053041,25.836594 L325.053041,25.836594 Z M327.898759,15.0554611 C327.898759,13.3944144 329.258936,12.0467728 330.926251,12.0467728 C332.593566,12.0467728 333.953744,13.4006825 333.953744,15.0554611 C333.953744,16.7165077 332.593566,18.0641493 330.926251,18.0641493 C329.252668,18.0641493 327.898759,16.7102396 327.898759,15.0554611 L327.898759,15.0554611 Z" id="Shape"></path>
            </g>
        </g>
    </g>
</svg>